<?xml version="1.0" encoding="UTF-8"?>
<svg xmlns="http://www.w3.org/2000/svg" xmlns:xlink="http://www.w3.org/1999/xlink" width="64px" height="64px" viewBox="0 0 64 64" version="1.1">
<g id="surface1">
<path style=" stroke:none;fill-rule:nonzero;fill:rgb(98.823529%,98.823529%,98.823529%);fill-opacity:1;" d="M 0 15.390625 L 64 15.390625 L 64 48.609375 L 0 48.609375 Z M 0 15.390625 "/>
<path style=" stroke:none;fill-rule:nonzero;fill:rgb(9.411765%,19.607843%,72.156863%);fill-opacity:1;" d="M 32.46875 20.859375 L 32.59375 20.890625 L 32.78125 21.109375 L 33.09375 21.578125 L 33.46875 22.078125 L 33.8125 22.546875 L 34.15625 23.046875 L 34.375 23.328125 L 34.75 23.828125 L 35.125 24.359375 L 35.5625 24.953125 L 35.84375 25.328125 L 36.28125 25.953125 L 36.78125 26.609375 L 37.1875 27.171875 L 37.5 27.609375 L 37.9375 28.203125 L 38.34375 28.765625 L 38.78125 29.359375 L 39.15625 29.859375 L 39.5625 30.421875 L 39.9375 30.921875 L 40.25 31.359375 L 40.6875 31.953125 L 41.0625 32.453125 L 41.5 33.046875 L 41.875 33.578125 L 42.28125 34.140625 L 42.71875 34.734375 L 43.125 35.296875 L 43.625 35.953125 L 43.96875 36.453125 L 43.96875 36.515625 L 43.8125 36.546875 L 43.28125 36.578125 L 39.5 36.578125 L 36.5 36.546875 L 21.65625 36.546875 L 21.59375 36.484375 L 22 35.921875 L 22.28125 35.484375 L 22.96875 34.484375 L 23.28125 34.046875 L 23.6875 33.453125 L 24.125 32.828125 L 24.53125 32.234375 L 24.84375 31.796875 L 26.15625 29.921875 L 26.5 29.421875 L 26.90625 28.859375 L 27.25 28.359375 L 28.25 26.921875 L 28.71875 26.234375 L 29.0625 25.734375 L 29.375 25.296875 L 29.65625 24.890625 L 30.09375 24.265625 L 30.46875 23.734375 L 30.8125 23.234375 L 31.25 22.609375 L 31.59375 22.109375 L 32.09375 21.390625 L 32.3125 21.046875 Z M 32.46875 20.859375 "/>
<path style=" stroke:none;fill-rule:nonzero;fill:rgb(98.431373%,96.078431%,12.54902%);fill-opacity:1;" d="M 32.90625 22.953125 L 33.4375 23.015625 L 33.9375 23.171875 L 33.96875 23.296875 L 33.71875 23.453125 L 33.40625 23.640625 L 33.1875 23.828125 L 32.84375 24.296875 L 32.5 24.890625 L 32.15625 25.609375 L 31.6875 26.765625 L 31.1875 28.171875 L 31.0625 28.578125 L 31.34375 28.390625 L 31.625 28.140625 L 32.125 27.828125 L 32.5625 27.546875 L 33.0625 27.296875 L 33.1875 27.265625 L 33.5 27.265625 L 33.78125 27.328125 L 34.1875 27.390625 L 34.21875 27.421875 L 34.1875 27.703125 L 34 28.359375 L 33.75 29.109375 L 33.6875 29.234375 L 33.71875 29.390625 L 34 29.578125 L 34.3125 29.796875 L 34.5625 29.953125 L 34.75 29.671875 L 34.96875 29.359375 L 35.1875 28.984375 L 35.40625 28.453125 L 35.53125 28.046875 L 35.59375 27.640625 L 35.59375 27.078125 L 35.5 26.796875 L 35.4375 26.671875 L 35.3125 26.609375 L 35.15625 26.515625 L 34.875 26.453125 L 34.1875 26.453125 L 33.5 26.578125 L 32.875 26.765625 L 32.78125 26.734375 L 33 26.609375 L 33.65625 26.390625 L 34.25 26.265625 L 34.625 26.234375 L 35.09375 26.234375 L 35.46875 26.328125 L 35.75 26.484375 L 35.9375 26.703125 L 36.0625 26.984375 L 36.0625 27.640625 L 35.90625 28.234375 L 35.6875 28.734375 L 35.4375 29.203125 L 35.1875 29.578125 L 34.9375 29.921875 L 34.75 30.171875 L 35.09375 30.515625 L 35.5 31.046875 L 35.875 31.609375 L 36.25 32.234375 L 36.34375 32.453125 L 36.34375 32.609375 L 36.21875 32.671875 L 36 32.703125 L 35.8125 32.609375 L 35.34375 31.859375 L 35.03125 31.390625 L 34.75 31.046875 L 34.40625 30.640625 L 34.28125 30.609375 L 34.21875 30.734375 L 33.90625 31.015625 L 33.5625 31.296875 L 33.15625 31.609375 L 32.5625 31.984375 L 31.875 32.359375 L 31.21875 32.640625 L 30.59375 32.859375 L 30.09375 33.015625 L 29.3125 33.171875 L 28.28125 33.171875 L 27.65625 33.046875 L 27.1875 32.859375 L 26.875 32.671875 L 26.625 32.390625 L 26.53125 32.171875 L 26.5 31.765625 L 26.5625 31.359375 L 26.75 30.890625 L 27.0625 30.390625 L 27.34375 30.078125 L 27.5625 29.828125 L 28.03125 29.359375 L 28.28125 29.140625 L 28.59375 28.859375 L 29.15625 28.453125 L 29.5625 28.140625 L 30.125 27.796875 L 30.4375 27.609375 L 30.625 27.234375 L 30.96875 26.453125 L 31.96875 24.453125 L 32.375 23.734375 L 32.625 23.296875 L 32.84375 22.984375 Z M 32.90625 22.953125 "/>
<path style=" stroke:none;fill-rule:nonzero;fill:rgb(98.431373%,96.470588%,11.372549%);fill-opacity:1;" d="M 32 20.828125 L 32.1875 20.890625 L 32.1875 21.296875 L 31.6875 22.015625 L 31.28125 22.609375 L 30.40625 23.859375 L 30 24.453125 L 29.59375 25.015625 L 29.1875 25.609375 L 28.875 26.046875 L 28.40625 26.734375 L 28.0625 27.234375 L 27.0625 28.671875 L 26.3125 29.734375 L 25.96875 30.234375 L 25.59375 30.765625 L 25.15625 31.390625 L 24.78125 31.921875 L 24.4375 32.421875 L 24.0625 32.953125 L 23.71875 33.453125 L 23.21875 34.171875 L 22.8125 34.765625 L 22.4375 35.296875 L 21.875 36.140625 L 21.625 36.484375 L 21.65625 36.515625 L 36.5 36.515625 L 43.71875 36.578125 L 43.8125 36.796875 L 43.8125 36.984375 L 43.03125 37.015625 L 20.59375 37.015625 L 20.65625 36.796875 L 21 36.328125 L 21.21875 36.015625 L 21.5625 35.609375 L 21.8125 35.234375 L 22.125 34.796875 L 22.5 34.265625 L 22.84375 33.765625 L 23.09375 33.421875 L 23.84375 32.359375 L 24.15625 31.921875 L 24.5625 31.359375 L 24.84375 30.953125 L 25.28125 30.328125 L 25.59375 29.890625 L 25.96875 29.359375 L 26.3125 28.859375 L 26.71875 28.265625 L 26.9375 27.953125 L 27.34375 27.390625 L 27.5625 27.078125 L 27.65625 26.921875 L 27.71875 26.921875 L 27.71875 26.828125 L 27.78125 26.828125 L 27.84375 26.671875 L 28.125 26.296875 L 28.28125 26.046875 L 28.34375 26.046875 L 28.34375 25.953125 L 28.40625 25.953125 L 28.40625 25.859375 L 28.46875 25.859375 L 28.5 25.734375 L 28.65625 25.578125 L 28.96875 25.109375 L 29.375 24.546875 L 29.46875 24.390625 L 30.03125 23.640625 L 30.21875 23.328125 L 30.25 23.265625 L 30.3125 23.265625 L 30.375 23.109375 L 30.46875 22.953125 L 30.53125 22.953125 L 30.5625 22.796875 L 30.65625 22.703125 L 30.71875 22.578125 L 30.78125 22.515625 L 30.96875 22.265625 L 31.28125 21.828125 L 31.625 21.328125 L 31.6875 21.203125 L 31.75 21.203125 L 31.8125 21.078125 Z M 32 20.828125 "/>
<path style=" stroke:none;fill-rule:nonzero;fill:rgb(9.411765%,19.607843%,72.156863%);fill-opacity:1;" d="M 30.28125 27.984375 L 30.34375 27.984375 L 30.3125 28.234375 L 30.09375 28.734375 L 29.84375 29.390625 L 29.4375 30.609375 L 29.4375 30.734375 L 30.0625 30.671875 L 30.46875 29.953125 L 30.84375 29.390625 L 31.125 29.078125 L 31.21875 29.015625 L 31.5 29.015625 L 32.28125 29.234375 L 32.59375 29.359375 L 32.5625 29.546875 L 32.28125 29.953125 L 32.03125 30.296875 L 31.75 30.609375 L 31.3125 30.984375 L 30.90625 31.265625 L 30.40625 31.546875 L 29.78125 31.890625 L 29.75 32.078125 L 29.8125 32.171875 L 30.125 32.140625 L 30.84375 31.765625 L 31.3125 31.453125 L 31.8125 31.109375 L 32.46875 30.609375 L 32.875 30.265625 L 33.15625 30.015625 L 33.28125 29.828125 L 33.5 29.859375 L 33.78125 30.046875 L 34.09375 30.328125 L 34.15625 30.484375 L 33.71875 30.796875 L 33.4375 31.046875 L 32.90625 31.453125 L 32.4375 31.734375 L 31.84375 32.046875 L 31 32.359375 L 30.03125 32.703125 L 29.5 32.828125 L 28.90625 32.890625 L 28.5625 32.890625 L 28 32.828125 L 27.625 32.734375 L 27.28125 32.578125 L 27.03125 32.359375 L 26.875 32.109375 L 26.84375 31.953125 L 26.84375 31.640625 L 27 31.109375 L 27.25 30.609375 L 27.65625 30.109375 L 28.03125 29.703125 L 28.3125 29.421875 L 28.65625 29.140625 L 29.15625 28.734375 L 29.71875 28.328125 L 30.03125 28.109375 Z M 30.28125 27.984375 "/>
<path style=" stroke:none;fill-rule:nonzero;fill:rgb(99.215686%,99.215686%,99.215686%);fill-opacity:1;" d="M 33.15625 33.578125 L 34.25 33.578125 L 34.75 33.609375 L 35.28125 33.734375 L 35.53125 33.890625 L 35.75 34.109375 L 35.90625 34.421875 L 35.9375 34.578125 L 35.9375 35.140625 L 35.8125 35.453125 L 35.59375 35.734375 L 35.3125 35.921875 L 35 36.015625 L 34.78125 36.046875 L 34.0625 36.078125 L 33.5625 36.078125 L 32.8125 36.046875 L 32.8125 33.828125 L 32.75 33.609375 Z M 33.15625 33.578125 "/>
<path style=" stroke:none;fill-rule:nonzero;fill:rgb(98.823529%,98.823529%,98.823529%);fill-opacity:1;" d="M 36.875 33.578125 L 37.625 33.609375 L 37.875 33.921875 L 38.21875 34.234375 L 38.5625 34.515625 L 38.875 34.796875 L 39.21875 35.078125 L 39.34375 35.171875 L 39.34375 33.765625 L 39.3125 33.578125 L 39.96875 33.609375 L 40 33.640625 L 40 35.859375 L 40.03125 36.046875 L 39.34375 36.046875 L 39.25 35.984375 L 39.1875 35.796875 L 39.0625 35.734375 L 38.59375 35.328125 L 38.25 35.046875 L 37.9375 34.765625 L 37.59375 34.484375 L 37.53125 34.453125 L 37.53125 35.859375 L 37.5625 36.046875 L 37 36.078125 L 36.875 36.015625 L 36.90625 35.046875 L 36.90625 34.109375 Z M 36.875 33.578125 "/>
<path style=" stroke:none;fill-rule:nonzero;fill:rgb(83.921569%,86.27451%,27.45098%);fill-opacity:1;" d="M 34.40625 36.515625 L 36.5 36.515625 L 43.71875 36.578125 L 43.8125 36.796875 L 43.8125 36.984375 L 43.03125 37.015625 L 41.40625 37.015625 L 30.6875 36.984375 L 30.6875 36.953125 L 37.375 36.921875 L 36.3125 36.890625 L 35.84375 36.890625 L 35.5625 36.921875 L 35.125 36.921875 L 34.75 36.859375 L 34.46875 36.765625 L 34.40625 36.734375 L 33.8125 36.671875 L 33.78125 36.609375 L 32.0625 36.578125 L 32.0625 36.546875 Z M 34.40625 36.515625 "/>
<path style=" stroke:none;fill-rule:nonzero;fill:rgb(99.215686%,99.215686%,99.215686%);fill-opacity:1;" d="M 28.625 33.578125 L 29.28125 33.609375 L 29.3125 33.640625 L 29.3125 34.546875 L 31.03125 34.578125 L 31 33.578125 L 31.71875 33.609375 L 31.6875 36.046875 L 31 36.046875 L 31 35.546875 L 31.03125 35.015625 L 29.28125 35.015625 L 29.34375 36.078125 L 28.625 36.078125 L 28.625 33.796875 L 28.59375 33.609375 Z M 28.625 33.578125 "/>
<path style=" stroke:none;fill-rule:nonzero;fill:rgb(9.411765%,19.607843%,72.156863%);fill-opacity:1;" d="M 33.53125 34.015625 L 34.46875 34.015625 L 34.84375 34.078125 L 35.125 34.234375 L 35.25 34.421875 L 35.3125 34.640625 L 35.3125 35.046875 L 35.21875 35.265625 L 35.03125 35.484375 L 34.78125 35.609375 L 34.46875 35.671875 L 33.5 35.671875 L 33.46875 35.640625 L 33.46875 34.046875 Z M 33.53125 34.015625 "/>
<path style=" stroke:none;fill-rule:nonzero;fill:rgb(84.313725%,86.666667%,27.843137%);fill-opacity:1;" d="M 34.625 26.234375 L 35.09375 26.234375 L 35.46875 26.328125 L 35.75 26.484375 L 35.9375 26.703125 L 36.0625 26.984375 L 36.0625 27.640625 L 35.90625 28.234375 L 35.6875 28.734375 L 35.4375 29.203125 L 35.1875 29.578125 L 34.9375 29.921875 L 34.75 30.171875 L 35.09375 30.515625 L 35.5 31.046875 L 35.875 31.609375 L 36.25 32.234375 L 36.34375 32.453125 L 36.34375 32.609375 L 36.21875 32.640625 L 36.15625 32.328125 L 35.9375 31.984375 L 35.375 31.140625 L 35.125 30.796875 L 34.84375 30.453125 L 34.625 30.140625 L 34.21875 29.828125 L 33.6875 29.453125 L 33.53125 29.359375 L 33.5625 29.140625 L 33.78125 28.640625 L 33.90625 28.171875 L 34.0625 27.703125 L 34.15625 27.546875 L 34.21875 27.421875 L 34.1875 27.703125 L 34 28.359375 L 33.75 29.109375 L 33.6875 29.234375 L 33.71875 29.390625 L 34 29.578125 L 34.3125 29.796875 L 34.5625 29.953125 L 34.75 29.671875 L 34.96875 29.359375 L 35.1875 28.984375 L 35.40625 28.453125 L 35.53125 28.046875 L 35.59375 27.640625 L 35.59375 27.078125 L 35.5 26.796875 L 35.4375 26.671875 L 35.3125 26.609375 L 35.15625 26.515625 L 34.875 26.453125 L 34.1875 26.453125 L 33.5 26.578125 L 32.875 26.765625 L 32.78125 26.734375 L 33 26.609375 L 33.65625 26.390625 L 34.25 26.265625 Z M 34.625 26.234375 "/>
<path style=" stroke:none;fill-rule:nonzero;fill:rgb(83.529412%,85.882353%,25.490196%);fill-opacity:1;" d="M 32 20.828125 L 32.1875 20.890625 L 32.1875 21.296875 L 31.6875 22.015625 L 31.28125 22.609375 L 30.40625 23.859375 L 30.25 24.078125 L 30.09375 24.140625 L 29.84375 24.453125 L 29.65625 24.734375 L 29.3125 25.171875 L 29.1875 25.359375 L 28.625 26.046875 L 28.3125 26.265625 L 28.25 26.359375 L 28.1875 26.359375 L 28.125 26.515625 L 28 26.609375 L 27.9375 26.609375 L 28 26.453125 L 28.25 26.109375 L 28.28125 26.046875 L 28.34375 26.046875 L 28.34375 25.953125 L 28.40625 25.953125 L 28.40625 25.859375 L 28.46875 25.859375 L 28.5 25.734375 L 28.65625 25.578125 L 28.96875 25.109375 L 29.375 24.546875 L 29.46875 24.390625 L 30.03125 23.640625 L 30.21875 23.328125 L 30.25 23.265625 L 30.3125 23.265625 L 30.375 23.109375 L 30.46875 22.953125 L 30.53125 22.953125 L 30.5625 22.796875 L 30.65625 22.703125 L 30.71875 22.578125 L 30.78125 22.515625 L 30.96875 22.265625 L 31.28125 21.828125 L 31.625 21.328125 L 31.6875 21.203125 L 31.75 21.203125 L 31.8125 21.078125 Z M 32 20.828125 "/>
<path style=" stroke:none;fill-rule:nonzero;fill:rgb(99.215686%,99.215686%,99.215686%);fill-opacity:1;" d="M 25.125 33.578125 L 25.65625 33.578125 L 25.8125 33.609375 L 25.8125 35.671875 L 27.6875 35.640625 L 27.84375 35.578125 L 27.875 35.703125 L 27.875 36.078125 L 25.34375 36.078125 L 25.125 36.015625 L 25.15625 35.390625 L 25.15625 33.765625 Z M 25.125 33.578125 "/>
<path style=" stroke:none;fill-rule:nonzero;fill:rgb(84.313725%,86.27451%,28.235294%);fill-opacity:1;" d="M 34.15625 30.421875 L 34.25 30.515625 L 34.125 30.578125 L 33.9375 30.796875 L 33.84375 30.953125 L 33.4375 31.296875 L 33.28125 31.390625 L 33.0625 31.453125 L 32.8125 31.609375 L 32.75 31.765625 L 32.28125 32.078125 L 31.90625 32.296875 L 31.25 32.578125 L 31.21875 32.640625 L 30.59375 32.859375 L 30.09375 33.015625 L 29.3125 33.171875 L 28.28125 33.171875 L 27.65625 33.046875 L 27.5625 32.984375 L 27.5625 32.921875 L 27.25 32.765625 L 27.1875 32.671875 L 27.40625 32.703125 L 27.5625 32.671875 L 27.8125 32.765625 L 28.1875 32.828125 L 28.5625 32.859375 L 28.90625 32.859375 L 29.65625 32.765625 L 30.3125 32.578125 L 31.09375 32.296875 L 31.90625 31.984375 L 32.5625 31.640625 L 33.03125 31.328125 L 33.53125 30.921875 L 33.96875 30.578125 L 34.09375 30.484375 L 34.15625 30.484375 Z M 34.15625 30.421875 "/>
<path style=" stroke:none;fill-rule:nonzero;fill:rgb(9.411765%,19.607843%,72.156863%);fill-opacity:1;" d="M 22.375 37.546875 L 22.5 37.578125 L 22.5 39.359375 L 22.28125 39.359375 L 22.28125 38.921875 L 22.3125 37.953125 L 22 38.515625 L 21.71875 39.046875 L 21.625 39.234375 L 21.5625 39.265625 L 21.4375 39.140625 L 20.9375 38.234375 L 20.78125 37.984375 L 20.78125 39.359375 L 20.5625 39.359375 L 20.5625 38.765625 L 20.625 37.578125 L 20.84375 37.609375 L 21.03125 37.890625 L 21.46875 38.703125 L 21.59375 38.828125 L 21.96875 38.109375 L 22.21875 37.671875 Z M 22.375 37.546875 "/>
<path style=" stroke:none;fill-rule:nonzero;fill:rgb(9.411765%,19.607843%,72.156863%);fill-opacity:1;" d="M 43.5 37.546875 L 43.625 37.609375 L 43.8125 37.921875 L 44.34375 39.015625 L 44.46875 39.328125 L 44.46875 39.390625 L 44.25 39.359375 L 44.125 39.203125 L 43.9375 38.859375 L 43.65625 38.890625 L 43.125 38.890625 L 42.875 39.328125 L 42.8125 39.390625 L 42.625 39.390625 L 42.65625 39.234375 L 43 38.546875 L 43.34375 37.828125 Z M 43.5 37.546875 "/>
<path style=" stroke:none;fill-rule:nonzero;fill:rgb(9.411765%,19.607843%,72.156863%);fill-opacity:1;" d="M 25.09375 37.546875 L 25.21875 37.609375 L 25.3125 37.734375 L 25.625 38.390625 L 26.03125 39.265625 L 26.0625 39.390625 L 25.84375 39.359375 L 25.71875 39.203125 L 25.53125 38.859375 L 25.21875 38.890625 L 24.6875 38.890625 L 24.4375 39.359375 L 24.21875 39.359375 L 24.3125 39.078125 L 24.9375 37.796875 L 25.03125 37.609375 Z M 25.09375 37.546875 "/>
<path style=" stroke:none;fill-rule:nonzero;fill:rgb(9.411765%,19.607843%,72.156863%);fill-opacity:1;" d="M 31.59375 37.546875 L 31.71875 37.609375 L 32.125 38.390625 L 32.53125 39.265625 L 32.5625 39.390625 L 32.34375 39.359375 L 32.21875 39.203125 L 32.0625 38.890625 L 31.40625 38.890625 L 31.3125 38.859375 L 31.25 38.796875 L 31.03125 39.171875 L 30.9375 39.359375 L 30.875 39.390625 L 30.6875 39.390625 L 30.75 39.234375 L 31.125 38.453125 L 31.5 37.640625 Z M 31.59375 37.546875 "/>
<path style=" stroke:none;fill-rule:nonzero;fill:rgb(97.647059%,96.078431%,13.333333%);fill-opacity:1;" d="M 28.53125 28.921875 L 28.59375 28.953125 L 27.71875 29.828125 L 27.53125 30.109375 L 27.5625 30.265625 L 27.28125 30.609375 L 27.03125 31.109375 L 26.875 31.640625 L 26.875 31.953125 L 26.96875 32.234375 L 27.1875 32.484375 L 27.40625 32.609375 L 27.46875 32.640625 L 27.46875 32.703125 L 27.34375 32.734375 L 27.25 32.734375 L 27.59375 32.921875 L 27.59375 32.984375 L 27.40625 32.953125 L 26.90625 32.703125 L 26.6875 32.484375 L 26.53125 32.171875 L 26.5 31.765625 L 26.5625 31.359375 L 26.75 30.890625 L 27.0625 30.390625 L 27.34375 30.078125 L 27.5625 29.828125 L 28.03125 29.359375 Z M 28.53125 28.921875 "/>
<path style=" stroke:none;fill-rule:nonzero;fill:rgb(9.411765%,19.607843%,72.156863%);fill-opacity:1;" d="M 37.96875 37.546875 L 38.375 37.578125 L 38.6875 37.703125 L 38.875 37.859375 L 38.875 37.984375 L 38.6875 37.921875 L 38.375 37.796875 L 37.8125 37.796875 L 37.59375 37.921875 L 37.5625 37.984375 L 37.5625 38.234375 L 37.59375 38.296875 L 37.75 38.328125 L 38.375 38.359375 L 38.6875 38.421875 L 38.875 38.546875 L 38.9375 38.640625 L 38.9375 38.921875 L 38.84375 39.109375 L 38.625 39.296875 L 38.46875 39.359375 L 38.28125 39.390625 L 38 39.390625 L 37.59375 39.296875 L 37.28125 39.140625 L 37.21875 38.984375 L 37.28125 38.921875 L 37.4375 38.953125 L 37.625 39.078125 L 38 39.171875 L 38.28125 39.171875 L 38.5625 39.078125 L 38.71875 38.890625 L 38.71875 38.671875 L 38.53125 38.609375 L 37.8125 38.578125 L 37.5 38.484375 L 37.34375 38.359375 L 37.28125 38.140625 L 37.375 37.859375 L 37.5 37.703125 L 37.78125 37.578125 Z M 37.96875 37.546875 "/>
<path style=" stroke:none;fill-rule:nonzero;fill:rgb(99.215686%,99.215686%,99.215686%);fill-opacity:1;" d="M 33.25 23.671875 L 33.3125 23.703125 L 33.0625 23.984375 L 32.75 24.453125 L 32.5 24.890625 L 32.15625 25.609375 L 31.6875 26.765625 L 31.1875 28.171875 L 31.0625 28.578125 L 31.125 28.609375 L 30.875 28.859375 L 30.75 28.921875 L 30.75 28.609375 L 31.09375 27.984375 L 31.25 27.421875 L 31.46875 26.796875 L 31.8125 25.921875 L 32.03125 25.453125 L 32.4375 24.671875 L 32.71875 24.265625 L 33.09375 23.796875 Z M 33.25 23.671875 "/>
<path style=" stroke:none;fill-rule:nonzero;fill:rgb(98.431373%,98.431373%,95.686275%);fill-opacity:1;" d="M 30.5625 27.390625 L 30.59375 27.484375 L 30.4375 27.890625 L 30.375 28.109375 L 30.34375 27.984375 L 29.875 28.234375 L 29.46875 28.546875 L 29.125 28.796875 L 28.4375 29.359375 L 28.0625 29.703125 L 27.8125 29.953125 L 27.59375 30.203125 L 27.5625 30.140625 L 27.5 30.109375 L 27.6875 29.828125 L 27.8125 29.671875 L 28.0625 29.453125 L 28.5625 28.953125 L 28.59375 28.859375 L 29.15625 28.453125 L 29.5625 28.140625 L 30.125 27.796875 L 30.4375 27.609375 Z M 30.5625 27.390625 "/>
<path style=" stroke:none;fill-rule:nonzero;fill:rgb(98.431373%,98.823529%,96.862745%);fill-opacity:1;" d="M 34.1875 27.421875 L 34.21875 27.421875 L 34.1875 27.703125 L 34 28.359375 L 33.75 29.109375 L 33.6875 29.234375 L 33.71875 29.390625 L 34 29.578125 L 34.3125 29.796875 L 34.5625 29.953125 L 34.75 29.828125 L 35 29.515625 L 35.15625 29.359375 L 35.21875 29.421875 L 35.28125 29.390625 L 35.21875 29.546875 L 34.75 30.171875 L 35.09375 30.515625 L 35.5 31.046875 L 35.875 31.609375 L 36.25 32.234375 L 36.34375 32.453125 L 36.34375 32.609375 L 36.21875 32.640625 L 36.15625 32.328125 L 35.9375 31.984375 L 35.375 31.140625 L 35.125 30.796875 L 34.84375 30.453125 L 34.625 30.140625 L 34.21875 29.828125 L 33.6875 29.453125 L 33.53125 29.359375 L 33.5625 29.140625 L 33.78125 28.640625 L 33.90625 28.171875 L 34.0625 27.703125 L 34.15625 27.546875 Z M 34.1875 27.421875 "/>
<path style=" stroke:none;fill-rule:nonzero;fill:rgb(9.411765%,19.607843%,72.156863%);fill-opacity:1;" d="M 32.9375 27.796875 L 33.0625 27.796875 L 33.09375 28.015625 L 32.84375 28.859375 L 32.8125 28.921875 L 32.28125 28.796875 L 31.84375 28.671875 L 31.8125 28.609375 L 32.03125 28.359375 L 32.40625 28.078125 L 32.84375 27.828125 Z M 32.9375 27.796875 "/>
<path style=" stroke:none;fill-rule:nonzero;fill:rgb(9.411765%,19.607843%,72.156863%);fill-opacity:1;" d="M 35.5625 37.546875 L 35.65625 37.546875 L 35.625 37.703125 L 35.34375 38.109375 L 35 38.578125 L 34.96875 38.765625 L 34.96875 39.328125 L 34.9375 39.359375 L 34.75 39.359375 L 34.71875 39.234375 L 34.75 39.078125 L 34.75 38.703125 L 34.5625 38.390625 L 34.25 37.984375 L 34.03125 37.640625 L 34.03125 37.578125 L 34.21875 37.578125 L 34.375 37.703125 L 34.6875 38.203125 L 34.84375 38.359375 L 34.9375 38.328125 L 35.25 37.859375 L 35.40625 37.609375 Z M 35.5625 37.546875 "/>
<path style=" stroke:none;fill-rule:nonzero;fill:rgb(9.411765%,19.607843%,72.156863%);fill-opacity:1;" d="M 27.78125 37.578125 L 27.9375 37.578125 L 27.96875 37.734375 L 27.96875 39.171875 L 29.3125 39.171875 L 29.28125 39.296875 L 29.125 39.359375 L 27.75 39.359375 L 27.71875 39.328125 L 27.71875 37.640625 Z M 27.78125 37.578125 "/>
<path style=" stroke:none;fill-rule:nonzero;fill:rgb(9.411765%,19.607843%,72.156863%);fill-opacity:1;" d="M 40.6875 37.578125 L 40.9375 37.578125 L 40.96875 37.609375 L 40.9375 39.359375 L 40.6875 39.359375 Z M 40.6875 37.578125 "/>
<path style=" stroke:none;fill-rule:nonzero;fill:rgb(84.313725%,86.27451%,28.235294%);fill-opacity:1;" d="M 28.53125 28.921875 L 28.59375 28.953125 L 27.71875 29.828125 L 27.53125 30.109375 L 27.5625 30.265625 L 27.28125 30.609375 L 27.03125 31.109375 L 26.96875 31.015625 L 26.9375 30.828125 L 27.0625 30.515625 L 27.21875 30.203125 L 27.65625 29.734375 L 28.03125 29.359375 Z M 28.53125 28.921875 "/>
<path style=" stroke:none;fill-rule:nonzero;fill:rgb(99.215686%,99.215686%,99.215686%);fill-opacity:1;" d="M 34.15625 30.515625 L 34.28125 30.546875 L 34.34375 30.609375 L 34.28125 30.609375 L 34.21875 30.734375 L 33.90625 31.015625 L 33.5625 31.296875 L 33.15625 31.609375 L 32.5625 31.984375 L 31.875 32.359375 L 31.28125 32.609375 L 31.21875 32.578125 L 31.46875 32.453125 L 32.03125 32.203125 L 32.625 31.828125 L 32.75 31.734375 L 32.8125 31.578125 L 33.09375 31.390625 L 33.3125 31.328125 L 33.5 31.203125 L 33.84375 30.921875 L 33.96875 30.734375 Z M 34.15625 30.515625 "/>
<path style=" stroke:none;fill-rule:nonzero;fill:rgb(99.215686%,99.215686%,99.215686%);fill-opacity:1;" d="M 31.625 37.890625 L 31.71875 37.984375 L 31.9375 38.484375 L 31.96875 38.640625 L 31.84375 38.671875 L 31.4375 38.703125 L 31.25 38.734375 L 31.34375 38.453125 L 31.59375 37.921875 Z M 31.625 37.890625 "/>
<path style=" stroke:none;fill-rule:nonzero;fill:rgb(99.215686%,99.215686%,99.215686%);fill-opacity:1;" d="M 43.53125 37.890625 L 43.625 37.984375 L 43.875 38.546875 L 43.875 38.640625 L 43.1875 38.734375 L 43.21875 38.578125 Z M 43.53125 37.890625 "/>
<path style=" stroke:none;fill-rule:nonzero;fill:rgb(99.215686%,99.215686%,99.215686%);fill-opacity:1;" d="M 25.09375 37.890625 L 25.15625 37.890625 L 25.40625 38.421875 L 25.46875 38.640625 L 25.3125 38.671875 L 24.78125 38.671875 L 24.96875 38.171875 Z M 25.09375 37.890625 "/>
<path style=" stroke:none;fill-rule:nonzero;fill:rgb(99.215686%,99.215686%,99.215686%);fill-opacity:1;" d="M 34.625 26.234375 L 35.09375 26.234375 L 35.09375 26.265625 L 34.90625 26.296875 L 34.9375 26.453125 L 34.1875 26.453125 L 33.5 26.578125 L 32.875 26.765625 L 32.78125 26.734375 L 33 26.609375 L 33.65625 26.390625 L 34.25 26.265625 Z M 34.625 26.234375 "/>
<path style=" stroke:none;fill-rule:nonzero;fill:rgb(84.705882%,86.666667%,25.882353%);fill-opacity:1;" d="M 34.15625 30.421875 L 34.25 30.515625 L 34.125 30.578125 L 33.9375 30.796875 L 33.84375 30.953125 L 33.4375 31.296875 L 33.28125 31.390625 L 33.0625 31.453125 L 32.96875 31.515625 L 32.875 31.484375 L 33.03125 31.328125 L 33.53125 30.921875 L 33.96875 30.578125 L 34.09375 30.484375 L 34.15625 30.484375 Z M 34.15625 30.421875 "/>
<path style=" stroke:none;fill-rule:nonzero;fill:rgb(99.215686%,96.862745%,9.019608%);fill-opacity:1;" d="M 35.84375 36.859375 L 36.65625 36.859375 L 37.375 36.890625 L 38.28125 36.890625 L 38.5625 36.921875 L 38.5625 36.953125 L 35.15625 36.953125 L 35.15625 36.921875 L 35.6875 36.890625 Z M 35.84375 36.859375 "/>
<path style=" stroke:none;fill-rule:nonzero;fill:rgb(99.215686%,96.862745%,9.019608%);fill-opacity:1;" d="M 35.46875 26.546875 L 35.59375 26.609375 L 35.65625 26.734375 L 35.78125 26.796875 L 35.8125 26.953125 L 35.9375 27.171875 L 35.90625 27.578125 L 35.75 28.078125 L 35.59375 28.328125 L 35.5 28.609375 L 35.40625 28.671875 L 35.5 28.359375 L 35.6875 27.890625 L 35.78125 27.453125 L 35.8125 27.140625 L 35.5625 26.703125 Z M 35.46875 26.546875 "/>
<path style=" stroke:none;fill-rule:nonzero;fill:rgb(99.215686%,99.215686%,99.215686%);fill-opacity:1;" d="M 30.875 29.296875 L 30.875 29.390625 L 30.40625 30.109375 L 30.09375 30.671875 L 30.0625 30.703125 L 29.84375 30.703125 L 30.03125 30.484375 L 30.21875 30.171875 L 30.5 29.765625 L 30.84375 29.328125 Z M 30.875 29.296875 "/>
<path style=" stroke:none;fill-rule:nonzero;fill:rgb(99.215686%,99.215686%,99.215686%);fill-opacity:1;" d="M 35.8125 26.578125 L 35.9375 26.703125 L 36.0625 26.984375 L 36.0625 27.640625 L 35.90625 28.234375 L 35.6875 28.734375 L 35.5 29.078125 L 35.46875 28.984375 L 35.75 28.453125 L 35.84375 28.171875 L 35.90625 27.890625 L 35.96875 27.640625 L 36 27.234375 L 35.9375 26.859375 L 35.8125 26.640625 Z M 35.8125 26.578125 "/>
<path style=" stroke:none;fill-rule:nonzero;fill:rgb(84.705882%,86.666667%,30.196078%);fill-opacity:1;" d="M 26.9375 31.203125 L 26.96875 31.296875 L 26.875 31.640625 L 26.875 31.953125 L 26.9375 32.234375 L 26.84375 32.140625 L 26.75 31.984375 L 26.75 31.921875 L 26.6875 31.921875 L 26.6875 31.546875 L 26.875 31.265625 Z M 26.9375 31.203125 "/>
<path style=" stroke:none;fill-rule:nonzero;fill:rgb(99.215686%,99.215686%,99.215686%);fill-opacity:1;" d="M 33.21875 29.765625 L 33.375 29.796875 L 33.28125 29.828125 L 33.21875 29.953125 L 33.03125 30.171875 L 32.78125 30.390625 L 32.28125 30.796875 L 32.15625 30.890625 L 32.09375 30.859375 L 32.5 30.515625 L 32.78125 30.296875 L 33.09375 29.890625 Z M 33.21875 29.765625 "/>
<path style=" stroke:none;fill-rule:nonzero;fill:rgb(89.411765%,90.588235%,52.54902%);fill-opacity:1;" d="M 33.71875 23.140625 L 33.9375 23.171875 L 33.96875 23.296875 L 33.84375 23.390625 L 33.71875 23.359375 L 33.6875 23.203125 Z M 33.71875 23.140625 "/>
<path style=" stroke:none;fill-rule:nonzero;fill:rgb(90.196078%,91.372549%,56.078431%);fill-opacity:1;" d="M 31.09375 28.984375 L 31.4375 28.984375 L 31.4375 29.015625 L 31.15625 29.078125 L 30.9375 29.296875 L 30.90625 29.203125 L 31 29.015625 Z M 31.09375 28.984375 "/>
<path style=" stroke:none;fill-rule:nonzero;fill:rgb(94.509804%,93.333333%,16.078431%);fill-opacity:1;" d="M 35.28125 28.890625 L 35.3125 28.984375 L 35.09375 29.328125 L 35 29.296875 L 35.1875 28.984375 Z M 35.28125 28.890625 "/>
<path style=" stroke:none;fill-rule:nonzero;fill:rgb(83.529412%,85.882353%,24.313725%);fill-opacity:1;" d="M 34.375 29.953125 L 34.5 30.015625 L 34.71875 30.203125 L 34.75 30.328125 L 34.59375 30.234375 L 34.375 29.984375 Z M 34.375 29.953125 "/>
</g>
</svg>
