<?xml version="1.0" encoding="UTF-8"?>
<svg version="1.1" viewBox="0 0 2048 1063" width="600" height="600" xmlns="http://www.w3.org/2000/svg">
<path transform="translate(0)" d="m0 0h2048v1063h-2048z" fill="#FCFCFC"/>
<path transform="translate(1039,175)" d="m0 0 4 1 6 7 10 15 12 16 11 15 11 16 7 9 12 16 12 17 14 19 9 12 14 20 16 21 13 18 10 14 14 19 13 18 14 19 12 16 13 18 12 16 10 14 14 19 12 16 14 19 12 17 13 18 14 19 13 18 16 21 11 16v2l-5 1-17 1h-121l-96-1h-475l-2-2 13-18 9-14 22-32 10-14 13-19 14-20 13-19 10-14 42-60 11-16 13-18 11-16 32-46 15-22 11-16 10-14 9-13 14-20 12-17 11-16 14-20 11-16 16-23 7-11z" fill="#1832B8"/>
<path transform="translate(1053,242)" d="m0 0 17 2 16 5 1 4-8 5-10 6-7 6-11 15-11 19-11 23-15 37-16 45-4 13 9-6 9-8 16-10 14-9 16-8 4-1h10l9 2 13 2 1 1-1 9-6 21-8 24-2 4 1 5 9 6 10 7 8 5 6-9 7-10 7-12 7-17 4-13 2-13v-18l-3-9-2-4-4-2-5-3-9-2h-22l-22 4-20 6-3-1 7-4 21-7 19-4 12-1h15l12 3 9 5 6 7 4 9v21l-5 19-7 16-8 15-8 12-8 11-6 8 11 11 13 17 12 18 12 20 3 7v5l-4 2-7 1-6-3-15-24-10-15-9-11-11-13-4-1-2 4-10 9-11 9-13 10-19 12-22 12-21 9-20 7-16 5-25 5h-33l-20-4-15-6-10-6-8-9-3-7-1-13 2-13 6-15 10-16 9-10 7-8 15-15 8-7 10-9 18-13 13-10 18-11 10-6 6-12 11-25 32-64 13-23 8-14 7-10z" fill="#FBF520"/>
<path transform="translate(1024,174)" d="m0 0 6 2v13l-16 23-13 19-28 40-13 19-13 18-13 19-10 14-15 22-11 16-32 46-24 34-11 16-12 17-14 20-12 17-11 16-12 17-11 16-16 23-13 19-12 17-18 27-8 11 1 1h475l231 2 3 7v6l-25 1h-718l2-7 11-15 7-10 11-13 8-12 10-14 12-17 11-16 8-11 24-34 10-14 13-18 9-13 14-20 10-14 12-17 11-16 13-19 7-10 13-18 7-10 3-5h2v-3h2l2-5 9-12 5-8h2v-3h2v-3h2l1-4 5-5 10-15 13-18 3-5 18-24 6-10 1-2h2l2-5 3-5h2l1-5 3-3 2-4 2-2 6-8 10-14 11-16 2-4h2l2-4z" fill="#FBF61D"/>
<path transform="translate(969,403)" d="m0 0h2l-1 8-7 16-8 21-13 39v4l20-2 13-23 12-18 9-10 3-2h9l25 7 10 4-1 6-9 13-8 11-9 10-14 12-13 9-16 9-20 11-1 6 2 3 10-1 23-12 15-10 16-11 21-16 13-11 9-8 4-6 7 1 9 6 10 9 2 5-14 10-9 8-17 13-15 9-19 10-27 10-31 11-17 4-19 2h-11l-18-2-12-3-11-5-8-7-5-8-1-5v-10l5-17 8-16 13-16 12-13 9-9 11-9 16-13 18-13 10-7z" fill="#1832B8"/>
<path transform="translate(1061,582)" d="m0 0h35l16 1 17 4 8 5 7 7 5 10 1 5v18l-4 10-7 9-9 6-10 3-7 1-23 1h-16l-24-1v-71l-2-7z" fill="#FDFDFD"/>
<path transform="translate(1180,582)" d="m0 0 24 1 8 10 11 10 11 9 10 9 11 9 4 3v-45l-1-6 21 1 1 1v71l1 6h-22l-3-2-2-6-4-2-15-13-11-9-10-9-11-9-2-1v45l1 6-18 1-4-2 1-31v-30z" fill="#FCFCFC"/>
<path transform="translate(1101,676)" d="m0 0h67l231 2 3 7v6l-25 1h-52l-343-1v-1l214-1-34-1h-15l-9 1h-14l-12-2-9-3-2-1-19-2-1-2-55-1v-1z" fill="#D6DC46"/>
<path transform="translate(916,582)" d="m0 0 21 1 1 1v29l55 1-1-32 23 1-1 78h-22v-16l1-17h-56l2 34h-23v-73l-1-6z" fill="#FDFDFD"/>
<path transform="translate(1073,596)" d="m0 0h30l12 2 9 5 4 6 2 7v13l-3 7-6 7-8 4-10 2h-31l-1-1v-51z" fill="#1832B8"/>
<path transform="translate(1108,347)" d="m0 0h15l12 3 9 5 6 7 4 9v21l-5 19-7 16-8 15-8 12-8 11-6 8 11 11 13 17 12 18 12 20 3 7v5l-4 1-2-10-7-11-18-27-8-11-9-11-7-10-13-10-17-12-5-3 1-7 7-16 4-15 5-15 3-5 2-4-1 9-6 21-8 24-2 4 1 5 9 6 10 7 8 5 6-9 7-10 7-12 7-17 4-13 2-13v-18l-3-9-2-4-4-2-5-3-9-2h-22l-22 4-20 6-3-1 7-4 21-7 19-4z" fill="#D7DD47"/>
<path transform="translate(1024,174)" d="m0 0 6 2v13l-16 23-13 19-28 40-5 7-5 2-8 10-6 9-11 14-4 6-18 22-10 7-2 3h-2l-2 5-4 3h-2l2-5 8-11 1-2h2v-3h2v-3h2l1-4 5-5 10-15 13-18 3-5 18-24 6-10 1-2h2l2-5 3-5h2l1-5 3-3 2-4 2-2 6-8 10-14 11-16 2-4h2l2-4z" fill="#D5DB41"/>
<path transform="translate(804,582)" d="m0 0h17l5 1v66l60-1 5-2 1 4v12h-81l-7-2 1-20v-52z" fill="#FDFDFD"/>
<path transform="translate(1093,481)" d="m0 0 3 3-4 2-6 7-3 5-13 11-5 3-7 2-8 5-2 5-15 10-12 7-21 9-1 2-20 7-16 5-25 5h-33l-20-4-3-2v-2l-10-5-2-3 7 1 5-1 8 3 12 2 12 1h11l24-3 21-6 25-9 26-10 21-11 15-10 16-13 14-11 4-3h2z" fill="#D7DC48"/>
<path transform="translate(716,709)" d="m0 0 4 1v57h-7v-14l1-31-10 18-9 17-3 6-2 1-4-4-16-29-5-8v44h-7v-19l2-38 7 1 6 9 14 26 4 4 12-23 8-14z" fill="#1832B8"/>
<path transform="translate(1392,709)" d="m0 0 4 2 6 10 17 35 4 10v2l-7-1-4-5-6-11-9 1h-17l-8 14-2 2h-6l1-5 11-22 11-23z" fill="#1832B8"/>
<path transform="translate(803,709)" d="m0 0 4 2 3 4 10 21 13 28 1 4-7-1-4-5-6-11-10 1h-17l-8 15h-7l3-9 20-41 3-6z" fill="#1832B8"/>
<path transform="translate(1011,709)" d="m0 0 4 2 13 25 13 28 1 4-7-1-4-5-5-10h-21l-3-1-2-2-7 12-3 6-2 1h-6l2-5 12-25 12-26z" fill="#1832B8"/>
<path transform="translate(913,433)" d="m0 0 2 1-28 28-6 9 1 5-9 11-8 16-5 17v10l3 9 7 8 7 4 2 1v2l-4 1h-3l11 6v2l-6-1-16-8-7-7-5-10-1-13 2-13 6-15 10-16 9-10 7-8 15-15 8-7z" fill="#F9F522"/>
<path transform="translate(1215,709)" d="m0 0 13 1 10 4 6 5v4l-6-2-10-4h-18l-7 4-1 2v8l1 2 5 1 20 1 10 2 6 4 2 3v9l-3 6-7 6-5 2-6 1h-9l-13-3-10-5-2-5 2-2 5 1 6 4 12 3h9l9-3 5-6v-7l-6-2-23-1-10-3-5-4-2-7 3-9 4-5 9-4z" fill="#1832B8"/>
<path transform="translate(1064,265)" d="m0 0 2 1-8 9-10 15-8 14-11 23-15 37-16 45-4 13 2 1-8 8-4 2v-10l11-20 5-18 7-20 11-28 7-15 13-25 9-13 12-15z" fill="#FDFDFD"/>
<path transform="translate(978,384)" d="m0 0 1 3-5 13-2 7-1-4-15 8-13 10-11 8-22 18-12 11-8 8-7 8-1-2-2-1 6-9 4-5 8-7 16-16 1-3 18-13 13-10 18-11 10-6z" fill="#FBFBF4"/>
<path transform="translate(1094,385)" d="m0 0h1l-1 9-6 21-8 24-2 4 1 5 9 6 10 7 8 5 6-4 8-10 5-5 2 2 2-1-2 5-15 20 11 11 13 17 12 18 12 20 3 7v5l-4 1-2-10-7-11-18-27-8-11-9-11-7-10-13-10-17-12-5-3 1-7 7-16 4-15 5-15 3-5z" fill="#FBFCF7"/>
<path transform="translate(1054,397)" d="m0 0h4l1 7-8 27-1 2-17-4-14-4-1-2 7-8 12-9 14-8z" fill="#1832B8"/>
<path transform="translate(1138,709)" d="m0 0h3l-1 5-9 13-11 15-1 6v18l-1 1h-6l-1-4 1-5v-9-3l-6-10-10-13-7-11v-2h6l5 4 10 16 5 5 3-1 10-15 5-8z" fill="#1832B8"/>
<path transform="translate(889,710)" d="m0 0h5l1 5v46h43l-1 4-5 2h-44l-1-1v-54z" fill="#1832B8"/>
<path transform="translate(1302,710)" d="m0 0h8l1 1-1 56h-8z" fill="#1832B8"/>
<path transform="translate(913,433)" d="m0 0 2 1-28 28-6 9 1 5-9 11-8 16-2-3-1-6 4-10 5-10 14-15 12-12 8-7z" fill="#D7DC48"/>
<path transform="translate(1093,484)" d="m0 0 4 1 2 2h-2l-2 4-10 9-11 9-13 10-19 12-22 12-19 8-2-1 8-4 18-8 19-12 4-3 2-5 9-6 7-2 6-4 11-9 4-6z" fill="#FDFDFD"/>
<path transform="translate(1012,720)" d="m0 0 3 3 7 16 1 5-4 1-13 1-6 1 3-9 8-17z" fill="#FDFDFD"/>
<path transform="translate(1393,720)" d="m0 0 3 3 8 18v3l-22 3 1-5z" fill="#FDFDFD"/>
<path transform="translate(803,720)" d="m0 0h2l8 17 2 7-5 1h-17l6-16z" fill="#FDFDFD"/>
<path transform="translate(1108,347)" d="m0 0h15v1l-6 1 1 5h-24l-22 4-20 6-3-1 7-4 21-7 19-4z" fill="#FDFDFD"/>
<path transform="translate(1093,481)" d="m0 0 3 3-4 2-6 7-3 5-13 11-5 3-7 2-3 2-3-1 5-5 16-13 14-11 4-3h2z" fill="#D8DD42"/>
<path transform="translate(1147,687)" d="m0 0h26l23 1h29l9 1v1h-109v-1l17-1z" fill="#FDF717"/>
<path transform="translate(1135,357)" d="m0 0 4 2 2 4 4 2 1 5 4 7-1 13-5 16-5 8-3 9-3 2 3-10 6-15 3-14 1-10-8-14z" fill="#FDF717"/>
<path transform="translate(988,445)" d="m0 0v3l-15 23-10 18-1 1h-7l6-7 6-10 9-13 11-14z" fill="#FDFDFD"/>
<path transform="translate(1146,358)" d="m0 0 4 4 4 9v21l-5 19-7 16-6 11-1-3 9-17 3-9 2-9 2-8 1-13-2-12-4-7z" fill="#FDFDFD"/>
<path transform="translate(862,506)" d="m0 0 1 3-3 11v10l2 9-3-3-3-5v-2h-2v-12l6-9z" fill="#D8DD4D"/>
<path transform="translate(1063,460)" d="m0 0 5 1-3 1-2 4-6 7-8 7-16 13-4 3-2-1 13-11 9-7 10-13z" fill="#FDFDFD"/>
<path transform="translate(1079,248)" d="m0 0 7 1 1 4-4 3-4-1-1-5z" fill="#E4E786"/>
<path transform="translate(995,435)" d="m0 0h11v1l-9 2-7 7-1-3 3-6z" fill="#E6E98F"/>
<path transform="translate(1129,432)" d="m0 0 1 3-7 11-3-1 6-10z" fill="#F1EE29"/>
<path transform="translate(1100,466)" d="m0 0 4 2 7 6 1 4-5-3-7-8z" fill="#D5DB3E"/>
</svg>
