<?xml version="1.0" encoding="utf-8"?>
<!-- Generator: Adobe Illustrator 16.0.0, SVG Export Plug-In . SVG Version: 6.00 Build 0)  -->
<!DOCTYPE svg PUBLIC "-//W3C//DTD SVG 1.1//EN" "http://www.w3.org/Graphics/SVG/1.1/DTD/svg11.dtd">
<svg version="1.1" id="Layer_1" xmlns="http://www.w3.org/2000/svg" xmlns:xlink="http://www.w3.org/1999/xlink" x="0px" y="0px"
	 width="70px" height="70px" viewBox="0 0 70 70" enable-background="new 0 0 70 70" xml:space="preserve">
<g>
	<defs>
		<filter id="Adobe_OpacityMaskFilter" filterUnits="userSpaceOnUse" x="0" y="0" width="70" height="70">
			<feColorMatrix  type="matrix" values="1 0 0 0 0  0 1 0 0 0  0 0 1 0 0  0 0 0 1 0"/>
		</filter>
	</defs>
	<mask maskUnits="userSpaceOnUse" x="0" y="0" width="70" height="70" id="icon-b">
		<g filter="url(#Adobe_OpacityMaskFilter)">
			<path id="icon-a" fill="#FFFFFF" d="M4,0h61c4,0,5,1,5,5v60c0,4-1,5-5,5H4c-3,0-4-1-4-5V5C0,1,1,0,4,0z"/>
		</g>
	</mask>
	<g mask="url(#icon-b)">
		<path fill="#9B108E" d="M0,0h70v70H0V0z"/>
		<path fill="#FFFFFF" fill-opacity="0.383" d="M4,1h61c2.667,0,4.333,0.667,5,2V0H0v3C0.667,1.667,2,1,4,1z"/>
		<path opacity="0.165" enable-background="new    " d="M26.375,11.5l9.25,1.125L54,18.25l4,6.11v19.558L33.423,69H4.006
			C2.003,69,0,68.854,0,64.911V38.064l12.348-14L26.375,11.5z"/>
		<path fill-opacity="0.383" d="M4,69h61c2.667,0,4.333-1,5-3v4H0v-4C0.667,68,2,69,4,69z"/>
		<g display="none">
			<g id="Layer_1_1_" display="inline">
				<path fill="#FFFFFF" d="M35,8.281C20.246,8.281,8.281,20.246,8.281,35S20.246,61.719,35,61.719S61.719,49.754,61.719,35
					S49.754,8.281,35,8.281z M35,19.297c4.301,0,7.793,3.492,7.793,7.793c0,4.301-3.492,7.793-7.793,7.793s-7.793-3.492-7.793-7.793
					C27.207,22.789,30.699,19.297,35,19.297z M47.598,46.156c0,2.496-2.039,4.535-4.535,4.535H26.938
					c-2.496,0-4.535-2.039-4.535-4.535v-9.609c0-2.496,2.039-4.535,4.535-4.535h0.375c1.582,2.578,4.43,4.3,7.676,4.3
					s6.094-1.729,7.676-4.3h0.375c2.496,0,4.535,2.039,4.535,4.535v9.609H47.598z"/>
			</g>
			<g id="Layer_2" display="inline">
				<g>
					<path fill="#FFFFFF" d="M47.984,8.398H15.289c-3.223,0-5.859,2.637-5.859,5.859v41.484c0,3.223,2.637,5.858,5.859,5.858h32.695
						c3.223,0,5.854-2.646,5.854-5.858V14.258C53.844,11.035,51.207,8.398,47.984,8.398z M31.637,19.297
						c4.3,0,7.792,3.492,7.792,7.793c0,4.301-3.492,7.793-7.792,7.793c-4.301,0-7.793-3.492-7.793-7.793
						C23.844,22.789,27.324,19.297,31.637,19.297z M44.234,46.156c0,2.496-2.039,4.535-4.535,4.535H23.574
						c-2.496,0-4.535-2.039-4.535-4.535v-9.609c0-2.496,2.039-4.535,4.535-4.535h0.375c1.582,2.578,4.43,4.3,7.676,4.3
						s6.094-1.729,7.676-4.3h0.375c2.496,0,4.535,2.039,4.535,4.535v9.609H44.234z"/>
					<g>
						<g>
							<g>
								<g>
									<rect id="SVGID_2_" x="53.375" y="18.242" fill="#FFFFFF" width="7.207" height="32.227"/>
								</g>
								<g>
									<g>
										<g>
											<g>
												<g>
													<g>
														<g>
															<g>
																<g>
																	<g>
																		<g>
																			<g>
																				<g>
																					<defs>
																						<rect id="SVGID_1_" x="53.375" y="18.242" width="7.207" height="32.227"/>
																					</defs>
																					<clipPath id="SVGID_3_">
																						<use xlink:href="#SVGID_1_"  overflow="visible"/>
																					</clipPath>
																					<g clip-path="url(#SVGID_3_)">
																						<path fill="#FFFFFF" d="M59.41,19.063h-8.438c-0.646,0-1.185,0.527-1.185,1.172v5.391
																							c0,0.645,0.521,1.172,1.185,1.172h8.438c0.645,0,1.172-0.527,1.172-1.172v-5.391
																							C60.582,19.59,60.055,19.063,59.41,19.063z"/>
																						<path fill="#FFFFFF" d="M56.188,42.266H47.75c-0.645,0-1.172,0.527-1.172,1.172v5.396
																							c0,0.646,0.527,1.172,1.172,1.172h8.438c0.646,0,1.172-0.521,1.172-1.172v-5.396
																							C57.359,42.793,56.832,42.266,56.188,42.266z"/>
																						<path fill="#FFFFFF" d="M58.18,30.664h-8.438c-0.645,0-1.172,0.527-1.172,1.172v5.391
																							c0,0.646,0.527,1.172,1.172,1.172h8.438c0.646,0,1.172-0.521,1.172-1.172v-5.391
																							C59.352,31.191,58.824,30.664,58.18,30.664z"/>
																					</g>
																				</g>
																			</g>
																		</g>
																	</g>
																</g>
															</g>
														</g>
													</g>
												</g>
											</g>
										</g>
									</g>
								</g>
							</g>
						</g>
					</g>
				</g>
			</g>
			<g id="Layer_3" display="inline">
				<g>
					<path fill="#FFFFFF" d="M60.664,17.539h-2.402c-0.375,2.578-2.59,4.57-5.273,4.57c-2.682,0-4.897-1.992-5.271-4.57h-25.43
						c-0.375,2.578-2.59,4.57-5.273,4.57s-4.91-1.992-5.273-4.57H9.336c-0.645,0-1.172,0.527-1.172,1.172v37.734
						c0,0.645,0.527,1.172,1.172,1.172h51.328c0.645,0,1.172-0.527,1.172-1.172V18.711C61.836,18.066,61.309,17.539,60.664,17.539z
						 M23.281,25.508c3.305,0,5.988,2.684,5.988,5.988c0,3.304-2.684,5.988-5.988,5.988c-3.304,0-5.988-2.688-5.988-5.988
						C17.293,28.192,19.977,25.508,23.281,25.508z M32.961,46.156c0,1.922-1.57,3.492-3.492,3.492H17.082
						c-1.922,0-3.492-1.57-3.492-3.492v-7.383c0-1.922,1.57-3.492,3.492-3.492h0.293c1.219,1.979,3.398,3.305,5.906,3.305
						c2.508,0,4.688-1.324,5.906-3.305h0.293c1.922,0,3.492,1.57,3.492,3.492v7.383H32.961z M56.328,45.781
						c0,0.645-0.527,1.172-1.172,1.172H36.992c-0.645,0-1.172-0.527-1.172-1.172v-0.82c0-0.645,0.527-1.172,1.172-1.172h18.164
						c0.645,0,1.172,0.527,1.172,1.172V45.781z M56.328,38.164c0,0.645-0.527,1.172-1.172,1.172H36.992
						c-0.645,0-1.172-0.527-1.172-1.172v-0.82c0-0.645,0.527-1.172,1.172-1.172h18.164c0.645,0,1.172,0.527,1.172,1.172V38.164z
						 M56.328,30.547c0,0.645-0.527,1.172-1.172,1.172H36.992c-0.645,0-1.172-0.527-1.172-1.172v-0.82
						c0-0.645,0.527-1.172,1.172-1.172h18.164c0.645,0,1.172,0.527,1.172,1.172V30.547z"/>
					<path fill="#FFFFFF" d="M17.012,12.383c-2.367,0-4.277,1.91-4.277,4.277c0,2.367,1.91,4.277,4.277,4.277
						c2.367,0,4.277-1.91,4.277-4.277C21.289,14.293,19.379,12.383,17.012,12.383z M17.012,19.414c-1.523,0-2.754-1.23-2.754-2.754
						c0-1.524,1.23-2.754,2.754-2.754c1.524,0,2.754,1.229,2.754,2.754C19.766,18.184,18.535,19.414,17.012,19.414z"/>
					<path fill="#FFFFFF" d="M53.105,12.383c-2.367,0-4.277,1.91-4.277,4.277c0,2.367,1.91,4.277,4.277,4.277
						s4.271-1.91,4.271-4.277C57.382,14.293,55.473,12.383,53.105,12.383z M53.105,19.414c-1.523,0-2.754-1.23-2.754-2.754
						c0-1.524,1.229-2.754,2.754-2.754c1.521,0,2.754,1.229,2.754,2.754C55.859,18.184,54.629,19.414,53.105,19.414z"/>
				</g>
			</g>
			<g id="Layer_4" display="inline">
				<g>
					<path fill="#FFFFFF" d="M46.883,26.41h-7.5c-0.48,0-0.879,0.398-0.879,0.879l0,0c0,0.48,0.398,0.879,0.879,0.879h7.5
						c0.48,0,0.879-0.398,0.879-0.879l0,0C47.762,26.797,47.363,26.41,46.883,26.41z"/>
					<path fill="#FFFFFF" d="M46.883,23.199h-7.5c-0.48,0-0.879,0.398-0.879,0.879s0.398,0.879,0.879,0.879h7.5
						c0.48,0,0.879-0.398,0.879-0.879S47.363,23.199,46.883,23.199z"/>
					<path fill="#FFFFFF" d="M35,8.281C20.246,8.281,8.281,20.246,8.281,35S20.246,61.719,35,61.719S61.719,49.754,61.719,35
						S49.754,8.281,35,8.281z M28.086,27.734c3.34,0,6.047,2.707,6.047,6.047c0,3.34-2.707,6.047-6.047,6.047
						s-6.047-2.707-6.047-6.047C22.039,30.441,24.746,27.734,28.086,27.734z M37.871,48.582c0,1.934-1.582,3.527-3.527,3.527H21.828
						c-1.934,0-3.527-1.582-3.527-3.527v-7.465c0-1.934,1.582-3.527,3.527-3.527h0.293c1.23,2.004,3.434,3.34,5.965,3.34
						c2.531,0,4.734-1.336,5.965-3.34h0.293c1.934,0,3.527,1.582,3.527,3.527V48.582z M52.508,26.527c0,2.098-1.488,3.82-3.305,3.82
						h-7.277l-7.02,2.777l2.098-2.789h0.047c-1.816,0-3.305-1.723-3.305-3.82v-4.84c0-2.098,1.488-3.82,3.305-3.82h12.152
						c1.816,0,3.305,1.723,3.305,3.82V26.527z"/>
					<path fill="#FFFFFF" d="M46.883,20h-7.5c-0.48,0-0.879,0.398-0.879,0.879s0.398,0.879,0.879,0.879h7.5
						c0.48,0,0.879-0.398,0.879-0.879S47.363,20,46.883,20z"/>
				</g>
			</g>
			<g id="Layer_5" display="inline">
				<path fill="#FFFFFF" d="M34.883,8.164c-14.754,0-26.719,11.965-26.719,26.719s11.965,26.719,26.719,26.719
					s26.719-11.965,26.719-26.719S49.637,8.164,34.883,8.164z M29.445,22.203c3.984,0,7.219,3.234,7.219,7.219
					c0,3.985-3.234,7.219-7.219,7.219c-3.985,0-7.219-3.229-7.219-7.219C22.226,25.437,25.461,22.203,29.445,22.203z M41.105,47.082
					c0,2.309-1.896,4.207-4.207,4.207H21.98c-2.309,0-4.207-1.887-4.207-4.207v-8.895c0-2.313,1.887-4.208,4.207-4.208h0.352
					c1.465,2.391,4.102,3.984,7.113,3.984c3.011,0,5.648-1.594,7.114-3.984h0.354c2.312,0,4.207,1.887,4.207,4.208v8.895H41.105z
					 M49.344,29.129v5.988h-2.801v-5.988h-5.988v-2.801h5.988v-5.977h2.801v5.988h5.988v2.801h-5.988V29.129z"/>
			</g>
			<g id="Layer_6" display="inline">
				<path fill="#FFFFFF" d="M35,8.281C20.246,8.281,8.281,20.246,8.281,35S20.246,61.719,35,61.719S61.719,49.754,61.719,35
					S49.754,8.281,35,8.281z M29.563,22.32c3.984,0,7.219,3.234,7.219,7.219s-3.234,7.219-7.219,7.219s-7.219-3.234-7.219-7.219
					S25.578,22.32,29.563,22.32z M41.223,47.199c0,2.309-1.887,4.207-4.207,4.207H22.098c-2.309,0-4.207-1.887-4.207-4.207v-8.895
					c0-2.313,1.887-4.208,4.207-4.208h0.352c1.465,2.39,4.102,3.984,7.113,3.984s5.648-1.596,7.113-3.984h0.352
					c2.313,0,4.207,1.886,4.207,4.208v8.895H41.223z M40.742,29.258v-2.813h14.297v2.813H40.742z"/>
			</g>
			<g id="Layer_7" display="inline">
				<path fill="#FFFFFF" d="M35,8.281C20.246,8.281,8.281,20.246,8.281,35S20.246,61.719,35,61.719S61.719,49.754,61.719,35
					S49.754,8.281,35,8.281z M29.563,22.32c3.984,0,7.219,3.234,7.219,7.219s-3.234,7.219-7.219,7.219s-7.219-3.234-7.219-7.219
					S25.578,22.32,29.563,22.32z M41.223,47.199c0,2.309-1.887,4.207-4.207,4.207H22.098c-2.309,0-4.207-1.887-4.207-4.207v-8.895
					c0-2.313,1.887-4.208,4.207-4.208h0.352c1.465,2.39,4.102,3.984,7.113,3.984s5.648-1.596,7.113-3.984h0.352
					c2.313,0,4.207,1.886,4.207,4.208v8.895H41.223z M48.219,33.031l-1.992,1.992l-1.992-1.992l-4.805-4.805l1.992-1.992
					l4.805,4.805l8.121-8.121l1.992,1.992L48.219,33.031z"/>
			</g>
			<g id="Layer_8" display="inline">
				<g>
					<path fill="#FFFFFF" d="M35,8.281C20.246,8.281,8.281,20.246,8.281,35S20.246,61.719,35,61.719S61.719,49.754,61.719,35
						S49.754,8.281,35,8.281z M44.926,17.07c3.023,0,5.473,2.449,5.473,5.473s-2.438,5.473-5.473,5.473
						c-3.023,0-5.473-2.449-5.473-5.473S41.902,17.07,44.926,17.07z M40.461,36.605c0,3.021-2.449,5.473-5.473,5.473
						s-5.473-2.449-5.473-5.473c0-3.024,2.449-5.479,5.473-5.479S40.461,33.582,40.461,36.605z M25.074,17.07
						c3.023,0,5.473,2.449,5.473,5.473s-2.449,5.473-5.473,5.473c-3.024,0-5.473-2.449-5.473-5.473S22.051,17.07,25.074,17.07z
						 M16.238,35.914v-6.738c0-1.746,1.43-3.188,3.188-3.188h0.27c1.113,1.816,3.105,3.023,5.391,3.023s4.277-1.207,5.391-3.023
						h0.27c1.746,0,3.188,1.43,3.188,3.188v1.289c-2.953,0.504-5.203,3.07-5.203,6.141c0,0.896,0.188,1.734,0.527,2.496h-9.844
						C17.668,39.102,16.238,37.672,16.238,35.914z M43.836,49.742c0,1.746-1.43,3.188-3.188,3.188H29.34
						c-1.746,0-3.188-1.43-3.188-3.188v-6.738c0-1.746,1.43-3.188,3.188-3.188h0.27c1.113,1.813,3.105,3.021,5.391,3.021
						s4.276-1.207,5.392-3.021h0.271c1.746,0,3.188,1.43,3.188,3.188v6.738H43.836z M53.762,35.914c0,1.746-1.43,3.188-3.188,3.188
						h-9.82c0.34-0.762,0.527-1.604,0.527-2.496c0-3.082-2.25-5.637-5.203-6.141v-1.289c0-1.746,1.43-3.188,3.188-3.188h0.271
						c1.111,1.816,3.104,3.023,5.391,3.023s4.277-1.207,5.393-3.023h0.271c1.746,0,3.188,1.43,3.188,3.188v6.738H53.762z"/>
				</g>
			</g>
		</g>
	</g>
</g>
<circle fill="#FFFFFF" cx="35" cy="35" r="26.5"/>
<g>
	<path fill-rule="evenodd" clip-rule="evenodd" d="M31.566,14.058c0.388,0.194,0.61,0.29,0.817,0.409
		c2.53,1.458,5.072,2.894,7.577,4.394c0.712,0.426,1.366,0.988,1.933,1.594c0.216,0.231,0.248,0.809,0.132,1.149
		c-1.058,3.089-2.177,6.158-3.251,9.242c-0.156,0.448-0.249,0.942-0.251,1.416c-0.023,2.925,0.001,5.85-0.023,8.775
		c-0.005,0.499,0.155,0.765,0.588,1.009c2.308,1.302,4.586,2.654,6.896,3.952c0.543,0.306,0.754,0.676,0.758,1.288
		c0.012,2.265,0.027,2.266-1.909,3.383c-2.762,1.596-5.533,3.176-8.281,4.794c-0.534,0.314-0.946,0.324-1.485,0.01
		c-3.852-2.248-7.718-4.472-11.589-6.688c-0.451-0.259-0.645-0.579-0.662-1.098c-0.077-2.384-0.157-2.53,2.006-3.533
		c1.761-0.817,2.252-1.906,2.182-3.797c-0.164-4.355-0.057-8.72-0.044-13.081c0.001-0.424,0.045-0.871,0.181-1.269
		c1.242-3.654,2.501-7.301,3.78-10.942C31.046,14.704,31.339,14.402,31.566,14.058z M35.115,49.214c0-0.481,0-0.779,0-1.075
		c0-5.337-0.006-10.673,0.013-16.009c0.001-0.501,0.101-1.022,0.263-1.497c1.067-3.144,2.163-6.278,3.25-9.415
		c0.464-1.339,0.465-1.338-0.784-2.06c-1.914-1.104-3.827-2.207-5.758-3.321c-0.09,0.189-0.161,0.306-0.205,0.433
		c-1.165,3.367-2.327,6.736-3.484,10.105c-0.069,0.202-0.137,0.417-0.137,0.625c-0.008,5.933-0.009,11.865,0.005,17.797
		c0,0.204,0.108,0.506,0.263,0.599C30.674,46.656,32.824,47.89,35.115,49.214z M38.51,43.229c0,1.469-0.141,2.807,0.034,4.102
		c0.239,1.764-0.454,2.763-2.019,3.426c-0.568,0.24-0.968,0.269-1.487-0.038c-2.259-1.331-4.514-2.671-6.817-3.92
		c-0.902-0.49-1.486-1.023-1.291-2.115c0.006-0.031-0.058-0.075-0.142-0.177c-0.617,0.356-1.246,0.721-1.964,1.135
		c3.616,2.088,7.12,4.123,10.644,6.119c0.207,0.118,0.628,0.029,0.869-0.106c2.235-1.263,4.452-2.556,6.676-3.841
		c0.53-0.308,1.058-0.616,1.706-0.993C42.622,45.608,40.647,44.465,38.51,43.229z M36.445,49.099
		c0.788-0.106,0.764-0.567,0.764-1.049c-0.006-5.334-0.011-10.669,0.007-16.004c0.002-0.501,0.092-1.024,0.255-1.497
		c1.007-2.907,2.043-5.804,3.077-8.701c0.153-0.426,0.33-0.83-0.348-1.013c-0.085,0.221-0.175,0.439-0.252,0.662
		c-1.079,3.11-2.167,6.217-3.223,9.335c-0.17,0.5-0.267,1.051-0.269,1.579c-0.019,5.253-0.012,10.507-0.012,15.761
		C36.445,48.462,36.445,48.752,36.445,49.099z M24.272,46.864c-0.266,0.613,0.043,0.868,0.488,1.12
		c2.93,1.673,5.849,3.362,8.77,5.047c0.485,0.278,0.97,0.56,1.47,0.85c0.268-0.576,0.027-0.829-0.408-1.074
		c-1.763-0.993-3.507-2.019-5.26-3.03C27.652,48.808,25.971,47.842,24.272,46.864z M36.379,53.713c0.088,0.051,0.174,0.1,0.262,0.15
		c2.804-1.62,5.614-3.232,8.401-4.881c0.212-0.125,0.268-0.517,0.395-0.784c-0.066-0.045-0.133-0.088-0.199-0.132
		c-2.828,1.633-5.661,3.257-8.474,4.914C36.562,53.1,36.504,53.464,36.379,53.713z"/>
	<path fill-rule="evenodd" clip-rule="evenodd" d="M38.457,20.254c-0.105,0.355-0.158,0.564-0.228,0.766
		c-1,2.907-1.997,5.814-3.006,8.718c-0.326,0.938-0.616,1.033-1.497,0.528c-1.453-0.834-2.892-1.69-4.356-2.501
		c-0.613-0.34-0.74-0.745-0.51-1.398c1.033-2.924,2.025-5.861,3.045-8.791c0.303-0.871,0.608-0.991,1.378-0.552
		c1.503,0.855,3.001,1.717,4.487,2.599C38.045,19.785,38.251,20.06,38.457,20.254z M34.083,28.938
		c0.936-2.683,1.855-5.305,2.749-7.935c0.046-0.135-0.083-0.429-0.216-0.509c-1.168-0.703-2.357-1.374-3.587-2.082
		c-0.934,2.687-1.843,5.285-2.723,7.892c-0.051,0.151,0.085,0.477,0.23,0.565C31.686,27.569,32.861,28.232,34.083,28.938z"/>
	<path fill-rule="evenodd" clip-rule="evenodd" d="M29.553,29.521c0.286,0.12,0.492,0.183,0.673,0.287
		c1.194,0.683,2.385,1.37,3.571,2.065c0.378,0.222,0.8,0.475,0.509,1.009c-0.307,0.562-0.758,0.375-1.18,0.131
		c-1.215-0.699-2.442-1.381-3.628-2.126c-0.234-0.146-0.391-0.536-0.427-0.832C29.053,29.901,29.376,29.706,29.553,29.521z"/>
	<path fill-rule="evenodd" clip-rule="evenodd" fill="#FFFFFF" d="M34.083,28.938c-1.222-0.706-2.396-1.369-3.547-2.069
		c-0.145-0.088-0.281-0.414-0.23-0.565c0.88-2.607,1.789-5.205,2.723-7.892c1.23,0.708,2.418,1.379,3.587,2.082
		c0.133,0.08,0.262,0.374,0.216,0.509C35.938,23.634,35.018,26.255,34.083,28.938z"/>
</g>
</svg>
